<?xml version="1.0" standalone="no"?><!DOCTYPE svg PUBLIC "-//W3C//DTD SVG 1.1//EN" "http://www.w3.org/Graphics/SVG/1.1/DTD/svg11.dtd"><svg t="1714799998717" class="icon" viewBox="0 0 1024 1024" version="1.1" xmlns="http://www.w3.org/2000/svg" p-id="1444" xmlns:xlink="http://www.w3.org/1999/xlink" width="128" height="128"><path d="M44.0832 45.1584m382.5152 0l169.7792 0q382.5152 0 382.5152 382.5152l0 169.7792q0 382.5152-382.5152 382.5152l-169.7792 0q-382.5152 0-382.5152-382.5152l0-169.7792q0-382.5152 382.5152-382.5152Z" fill="#F0fBFF" p-id="1445"></path><path d="M641.536 738.7648h-261.12a94.3616 94.3616 0 0 1-94.208-94.2592V392.3456a94.3616 94.3616 0 0 1 94.2592-94.2592h132.1472a13.6704 13.6704 0 1 1 0 27.3408H380.4672a66.9696 66.9696 0 0 0-66.9184 66.9184v252.16A66.9696 66.9696 0 0 0 380.4672 711.68h261.12a66.9696 66.9696 0 0 0 66.8672-66.9184v-125.1328a13.7216 13.7216 0 0 1 27.392 0v124.8768a94.3616 94.3616 0 0 1-94.3104 94.2592z" fill="#434A54" p-id="1446"></path><path d="M721.92 519.6288v124.8768a80.5888 80.5888 0 0 1-80.5888 80.5888h-261.12a80.5888 80.5888 0 0 1-80.5888-80.5888V392.3456a80.5888 80.5888 0 0 1 80.8448-80.5888h247.9104a94.208 94.208 0 0 1 94.208 94.6176z" fill="#FFD16C" p-id="1447"></path><path d="M447.1296 308.0192S358.4 319.6928 358.4 384v267.9296c0 16.128 1.4336 57.6 70.656 64.0512-49.152 0-132.0448-1.1776-132.0448-66.048V398.2848c0.2048-39.1168-7.6288-91.0848 150.1184-90.2656z" fill="#FFE8C0" p-id="1448"></path><path d="M572.1088 311.7568s88.8832 11.5712 88.8832 75.0592v265.472c0 15.9232-1.3824 57.088-70.912 63.4368 49.3568 0 132.5568-1.1776 132.5568-65.4336V401.152c0-38.7072 7.3728-96.9728-150.528-89.3952z" fill="#FFC50B" p-id="1449"></path><path d="M641.536 738.7648h-261.12a94.3616 94.3616 0 0 1-94.208-94.2592V392.3456a94.3616 94.3616 0 0 1 94.2592-94.2592h132.1472a13.6704 13.6704 0 1 1 0 27.3408H380.4672a66.9696 66.9696 0 0 0-66.9184 66.9184v252.16A66.9696 66.9696 0 0 0 380.4672 711.68h261.12a66.9696 66.9696 0 0 0 66.8672-66.9184v-125.1328a13.7216 13.7216 0 0 1 27.392 0v124.8768a94.3616 94.3616 0 0 1-94.3104 94.2592z" fill="#434A54" p-id="1450"></path><path d="M522.24 569.6512l-59.904 10.8544a15.36 15.36 0 0 1-17.5616-18.3296l12.8512-57.3952a15.36 15.36 0 0 1 4.096-7.4752l201.5232-201.472a15.36 15.36 0 0 1 21.5552 0l46.7456 46.7968a15.36 15.36 0 0 1 0 21.5552l-201.216 201.216a15.36 15.36 0 0 1-8.0896 4.2496z" fill="#7BD3FF" p-id="1451"></path><path d="M686.08 300.6464a15.36 15.36 0 0 0-21.5552 0L463.104 502.1696a15.0528 15.0528 0 0 0-4.096 7.424l-12.9024 57.3952a15.36 15.36 0 0 0 0.9216 9.472l258.2016-256.7168z" fill="#AEECFF" p-id="1452"></path><path d="M459.776 594.432a28.9792 28.9792 0 0 1-28.2112-35.2768L444.4672 501.76a29.184 29.184 0 0 1 7.7312-14.1312l201.5232-201.472a28.9792 28.9792 0 0 1 40.96 0L741.376 332.8a28.8768 28.8768 0 0 1 0 40.96l-201.216 201.216a28.928 28.928 0 0 1-15.36 8.0384L464.9472 593.92a29.8496 29.8496 0 0 1-5.1712 0.512z m214.3744-289.3824a1.3824 1.3824 0 0 0-1.0752 0.4608L471.552 506.88a1.4336 1.4336 0 0 0-0.4096 0.768l-12.8512 57.3952a1.536 1.536 0 0 0 1.792 1.8944l59.904-10.8544a1.3312 1.3312 0 0 0 0.8192-0.4608L721.92 354.5088a1.536 1.536 0 0 0 0-2.2016l-46.7456-46.7968a1.5872 1.5872 0 0 0-1.024-0.4608z" fill="#434A54" p-id="1453"></path></svg>