<?xml version="1.0" standalone="no"?><!DOCTYPE svg PUBLIC "-//W3C//DTD SVG 1.1//EN" "http://www.w3.org/Graphics/SVG/1.1/DTD/svg11.dtd"><svg t="1714800005534" class="icon" viewBox="0 0 1024 1024" version="1.1" xmlns="http://www.w3.org/2000/svg" p-id="1607" xmlns:xlink="http://www.w3.org/1999/xlink" width="128" height="128"><path d="M44.288 47.9232m382.5152 0l169.7792 0q382.5152 0 382.5152 382.5152l0 169.7792q0 382.5152-382.5152 382.5152l-169.7792 0q-382.5152 0-382.5152-382.5152l0-169.7792q0-382.5152 382.5152-382.5152Z" fill="#FFFAE8" p-id="1608"></path><path d="M669.184 717.8752l-308.7872 0.4096A69.0176 69.0176 0 0 1 291.84 649.0112l-0.512-238.9504a66.9696 66.9696 0 0 1 27.0336-53.9648L378.88 311.3472a46.08 46.08 0 0 1 26.9824-8.96l219.2384-0.3072a45.7216 45.7216 0 0 1 27.5456 9.216l58.368 44.1856A66.9696 66.9696 0 0 1 737.28 408.9344l0.3072 239.5136a69.0176 69.0176 0 0 1-68.4032 69.4272z" fill="#FFD16C" p-id="1609"></path><path d="M734.72 389.888a66.56 66.56 0 0 0-23.7056-34.3552l-58.368-44.1856a45.7216 45.7216 0 0 0-27.5456-9.216l-219.2896 0.256A46.08 46.08 0 0 0 378.88 311.3472l-60.416 44.7488a66.56 66.56 0 0 0-24.1664 34.3552z" fill="#FFD16C" p-id="1610"></path><path d="M459.1104 309.1456h-30.208L354.56 383.232l-0.4096 0.512A27.4944 27.4944 0 0 0 348.16 400.6912v311.3984a8.448 8.448 0 0 0 8.448 8.448h64.8192V394.24z" fill="#FFE8C0" p-id="1611"></path><path d="M728.2688 391.5264l0.6144-14.08-86.2208-69.9904-60.6208-7.4752 87.04 98.6624h-0.6144v239.36c0 31.232-5.12 72.4992-54.3744 72.4992 75.008 0 122.4704 6.8608 122.4704-81.2544V390.5536z" fill="#FFC50B" p-id="1612"></path><path d="M751.6672 423.0656a125.6448 125.6448 0 0 0-1.6384-19.2v-0.8192c0-1.3312-0.4608-2.6624-0.7168-3.9424s-0.3584-1.792-0.5632-2.6624-0.256-1.1264-0.4096-1.6384a99.84 99.84 0 0 0-27.392-49.3568l-1.2288-1.024-58.368-44.1856a56.6272 56.6272 0 0 0-8.192-5.12l-0.9728-0.512-3.3792-1.5872a59.5456 59.5456 0 0 0-23.5008-4.8128H405.9648a59.2384 59.2384 0 0 0-14.08 1.7408 58.5216 58.5216 0 0 0-17.408 7.3216c-1.3312 0.8192-2.6112 1.6896-3.8912 2.6624l-14.848 10.9568-45.6192 33.792c-1.28 0.9728-2.56 2.048-3.7888 3.1744l-0.9728 0.9728-3.2768 2.9184-1.0752 1.3312c-0.768 0.9216-1.536 1.792-2.2528 2.7648l-1.28 1.7408c-0.4096 0.5632-1.1776 1.6384-1.7408 2.5088l-1.4848 2.3552c-0.4096 0.6144-0.768 1.2288-1.1264 1.8944s-1.2288 2.0992-1.792 3.1744l-0.3072 0.6144a129.5872 129.5872 0 0 0-11.3152 32.6656c0 1.2288-0.512 2.304-0.6656 3.1744a107.2128 107.2128 0 0 0-1.9968 20.1728l0.3072 224.8192a83.2512 83.2512 0 0 0 82.8416 83.4048l308.7872-0.3584a81.92 81.92 0 0 0 58.5728-24.6272 83.3536 83.3536 0 0 0 24.1664-59.0336z m-424.96-55.6032L387.2256 322.56a30.0032 30.0032 0 0 1 8.8064-4.5568h0.3072a31.2832 31.2832 0 0 1 9.472-1.4848l219.2896-0.3072a31.3344 31.3344 0 0 1 7.5776 0.9216A30.72 30.72 0 0 1 644.096 322.56l28.8768 21.8112 28.8256 21.8624c1.1264 1.0752 2.2016 2.2528 3.2256 3.3792l0.9728 1.1776c0.6656 0.8192 1.3312 1.5872 1.9456 2.4576l0.9728 1.3312c0.6144 0.8192 1.1776 1.6896 1.6896 2.5088s0.5632 0.8192 0.768 1.2288q1.1776 1.7408 2.1504 3.6864l0.4096 0.8192c0.512 0.9728 1.024 1.9968 1.4848 3.0208l0.5632 1.2288c0.4096 0.9728 0.768 1.8944 1.1776 2.816s0.256 0.7168 0.3584 1.024l0.3072 0.8704-406.3232 0.512a56.32 56.32 0 0 1 15.2576-24.832z m380.928 320.1024a53.8624 53.8624 0 0 1-38.5024 16.1792l-308.7872 0.4096a54.9888 54.9888 0 0 1-54.5792-55.1936l-0.3072-224.768v-3.4816l417.7408-0.5632v2.9184l0.3072 225.28a55.1424 55.1424 0 0 1-15.8208 39.2192z" fill="#434A54" p-id="1613"></path><path d="M675.4304 625.8176h-104.6016a14.1824 14.1824 0 0 0 0 28.3136h104.6016a14.1824 14.1824 0 0 0 0-28.3136z" fill="#434A54" p-id="1614"></path></svg>