<?xml version="1.0" standalone="no"?><!DOCTYPE svg PUBLIC "-//W3C//DTD SVG 1.1//EN" "http://www.w3.org/Graphics/SVG/1.1/DTD/svg11.dtd"><svg t="1716452249857" class="icon" viewBox="0 0 1024 1024" version="1.1" xmlns="http://www.w3.org/2000/svg" p-id="1042" xmlns:xlink="http://www.w3.org/1999/xlink" width="128" height="128"><path d="M180.992 693.589333a34.730667 34.730667 0 0 0 46.08 3.114667l3.584-3.2 306.218667-312.576a36.096 36.096 0 0 0-0.128-50.517333 34.56 34.56 0 0 0-46.08-3.114667l-3.541334 3.242667-306.176 312.576a36.138667 36.138667 0 0 0 0 50.474666z m612.266667-0.085333a34.730667 34.730667 0 0 0 49.706666 0.085333 36.138667 36.138667 0 0 0 3.285334-46.848l-3.114667-3.669333-203.349333-207.573333a34.688 34.688 0 0 0-49.621334-0.085334 36.138667 36.138667 0 0 0-3.285333 46.805334l3.114667 3.669333 203.306666 207.616z" fill="#8d8986" p-id="1043"></path></svg>