<svg t="1711424984691" class="icon" viewBox="0 0 1024 1024" version="1.1" xmlns="http://www.w3.org/2000/svg" p-id="864" width="128" height="128"><path d="M141.21142578 525.41590882C141.21142578 559.01862336 144.36312867 589.42328645 150.64336014 616.60672378 156.92359161 643.81333542 165.6371231 667.45110703 176.76078033 687.49686432 187.86126327 707.5657959 202.02075195 725.22460175 219.16972351 740.45010758 236.34186936 755.67561341 254.95082092 768.12020493 275.0197525 777.80705643 295.08868408 787.47073364 317.98487854 795.32681656 343.73151016 801.37530518 369.47814178 807.42379379 395.78095627 811.64151383 422.61677933 814.07481385 449.45260239 816.48493958 478.93029404 817.69000244 511.09620285 817.69000244 543.49385452 817.69000244 573.11059189 816.48493958 599.94641494 814.07481385 626.78223801 811.64151383 653.13140107 807.42379379 678.99390412 801.37530518 704.85640717 795.32681656 727.89164734 787.47073364 748.07645035 777.80705643 768.26125336 768.12020493 786.98607636 755.67561341 804.27409362 740.45010758 821.56211091 725.22460175 835.83747102 707.5657959 847.07699967 687.49686432 858.31652832 667.45110703 867.07640839 643.81333542 873.35663986 616.60672378 879.63687133 589.42328645 882.78857422 559.01862336 882.78857422 525.41590882 882.78857422 465.46403123 862.71964264 413.5999794 822.60495376 369.84692764 824.76016235 364.03018189 826.75315094 357.4486847 828.58391952 350.07926178 830.39151382 342.70983887 832.08323669 332.18871307 833.65908813 318.53905869 835.23493958 304.86623001 834.63240815 289.10771561 831.85149384 271.2171669 829.07057953 253.3266182 823.92588807 235.06528092 816.41741943 216.45632935L810.99463654 215.36713792C807.12453079 214.64873504 800.77477646 214.81095506 791.94537354 215.90014648 783.11597061 216.98933792 772.84976196 219.1677208 761.12357331 222.4352951 749.39738464 225.70286941 734.28775024 231.98310089 715.79467011 241.29916382 697.30158997 250.59205246 677.78884125 262.27189256 657.23324967 276.29233552 621.93881226 266.60548401 573.45820618 261.78523255 511.81460571 261.78523255 450.4027481 261.78523255 402.06118774 266.60548401 366.76675033 276.29233552 346.21115875 262.27189256 326.5825386 250.59205246 307.83454132 241.29916382 289.10971832 231.98310089 274.1854782 225.70286941 263.06182098 222.4352951 251.93816375 219.1677208 241.53290939 217.05886078 231.86923218 216.08554078 222.20555496 215.11222077 216.08754348 214.81095506 213.56154632 215.18174363 211.01237487 215.5525322 209.01938629 215.96966935 207.58258057 216.45632935 200.07411193 235.06528092 194.92942047 253.3034439 192.17168045 271.2171669 189.39076614 289.10771561 188.78823471 304.86623001 190.34091187 318.53905869 191.91676331 332.18871307 193.60848618 342.70983887 195.41608048 350.07926178 197.24684906 357.4486847 199.23983765 364.03018189 201.41822052 369.84692764 161.28035736 413.5999794 141.21142578 465.46403123 141.21142578 525.41590882ZM232.24002075 616.4213295C232.24002075 581.6135521 248.06805801 549.70256043 279.74730682 520.6883545 289.1560669 511.99799728 300.16385269 505.41650009 312.72431564 500.92068863 325.30795288 496.47122574 339.51379013 493.9220543 355.34182739 493.31952286 371.16986465 492.71699142 386.3490219 492.83286285 400.85612488 493.69031143 415.36322784 494.52458573 433.25377655 495.68330002 454.52777099 497.12010574 475.80176544 498.58008576 494.17897415 499.29848862 509.63622283 499.29848862 525.11664582 499.29848862 543.49385452 498.58008576 564.76784897 497.12010574 586.04184342 495.68330002 603.93239212 494.52458573 618.43949509 493.69031143 632.94659805 492.83286285 648.10258103 492.71699142 663.93061828 493.31952286 679.78182984 493.9220543 693.98766708 496.47122574 706.54813003 500.92068863 719.13176728 505.39332581 730.11637878 511.99799728 739.54831314 520.6883545 771.22756196 549.21590042 787.05559921 581.1268921 787.05559921 616.4213295 787.05559921 637.23183823 784.46007919 655.65539551 779.24586487 671.73834992 774.05482482 687.82130432 767.40380478 701.28556443 759.31597901 712.17747879 751.20497894 723.04621887 739.96545028 732.29275894 725.59739304 739.917099 711.2061615 747.51826477 697.18571853 753.3813591 683.51288986 757.50638199 669.86323547 761.60823059 652.34347534 764.80628205 630.93043518 767.10053636 609.54056931 769.39479065 590.44495773 770.78524781 573.64360047 771.27190782 556.84224319 771.75856782 535.49872589 772.01348496 509.63622283 772.01348496 483.77371978 772.01348496 462.43020249 771.75856782 445.62884521 771.27190782 428.82748795 770.78524781 409.73187637 769.39479065 388.3420105 767.10053636 366.95214462 764.80628205 349.43238449 761.60823059 335.75955582 757.50638199 322.10990143 753.3813591 308.08945847 747.51826477 293.69822693 739.917099 279.30699539 732.29275894 268.06746673 723.04621887 259.97964096 712.17747879 251.8686409 701.28556443 245.21762085 687.82130432 240.02658081 671.73834992 234.83554078 655.65539551 232.24002075 637.23183823 232.24002075 616.4213295ZM604.69714356 609.12142945A2.1725893 1.44839287 90 1 0 697.39428711 609.12142945 2.1725893 1.44839287 90 1 0 604.69714356 609.12142945zM326.60571289 609.12142945A2.1725893 1.44839287 90 1 0 419.30285644 609.12142945 2.1725893 1.44839287 90 1 0 326.60571289 609.12142945z" fill="#2c2c2c" p-id="865"></path></svg>