<?xml version="1.0" standalone="no"?><!DOCTYPE svg PUBLIC "-//W3C//DTD SVG 1.1//EN" "http://www.w3.org/Graphics/SVG/1.1/DTD/svg11.dtd"><svg t="1714800008453" class="icon" viewBox="0 0 1024 1024" version="1.1" xmlns="http://www.w3.org/2000/svg" p-id="1768" xmlns:xlink="http://www.w3.org/1999/xlink" width="128" height="128"><path d="M43.264 45.1584m382.5152 0l169.7792 0q382.5152 0 382.5152 382.5152l0 169.7792q0 382.5152-382.5152 382.5152l-169.7792 0q-382.5152 0-382.5152-382.5152l0-169.7792q0-382.5152 382.5152-382.5152Z" fill="#F3F3FF" p-id="1769"></path><path d="M664.6272 342.528h-28.5184a20.8896 20.8896 0 0 1-19.4048-13.1072l-8.8576-21.9648a40.96 40.96 0 0 0-37.888-25.6H463.4112a40.96 40.96 0 0 0-37.9904 25.6l-8.6016 21.7088a20.8896 20.8896 0 0 1-19.456 13.2096h-29.5936a75.4688 75.4688 0 0 0-75.4688 75.6736v223.4368A75.4688 75.4688 0 0 0 367.7696 716.8h296.96a75.4688 75.4688 0 0 0 75.4688-75.52v-223.232a75.4688 75.4688 0 0 0-75.5712-75.52z" fill="#C9C9F4" p-id="1770"></path><path d="M352.8192 638.976V412.5184c0-40.96 58.7776-70.8096 58.7776-70.8096l-0.7168-4.1984a20.48 20.48 0 0 1-13.5168 5.12h-29.5936a75.4688 75.4688 0 0 0-75.4688 75.4176v223.4368A75.4688 75.4688 0 0 0 367.7696 716.8H378.88c6.2464-0.5632 12.5952-0.8704 19.0976-0.8704-49.8176-15.616-45.1584-54.1696-45.1584-76.9536z" fill="#DEDEFF" p-id="1771"></path><path d="M676.5056 638.976V412.5184c0-40.96-58.7776-70.8096-58.7776-70.8096l0.7168-4.1984a20.48 20.48 0 0 0 13.5168 5.12h29.5936A75.4688 75.4688 0 0 1 737.28 418.048v223.4368A75.4688 75.4688 0 0 1 661.5552 716.8h-10.8544c-6.2464-0.5632-12.5952-0.8704-19.0976-0.8704 49.3568-15.616 44.9024-54.1696 44.9024-76.9536z" fill="#B2B2EA" p-id="1772"></path><path d="M664.6272 731.2896h-296.96a89.9072 89.9072 0 0 1-89.8048-89.8048V418.048a89.9072 89.9072 0 0 1 89.9072-89.8048h29.5936a6.6048 6.6048 0 0 0 6.144-4.1984l8.6016-21.7088a54.8864 54.8864 0 0 1 51.2-34.816h106.5472a54.8864 54.8864 0 0 1 51.2 34.56l8.704 22.016a6.6048 6.6048 0 0 0 6.144 4.1472h28.5184a89.9072 89.9072 0 0 1 89.8048 89.8048v223.4368a89.9072 89.9072 0 0 1-89.6 89.8048z m-296.96-374.4256a61.44 61.44 0 0 0-61.184 61.44v223.4368a61.44 61.44 0 0 0 61.184 61.44h296.96a61.44 61.44 0 0 0 61.1328-61.44V418.048a61.44 61.44 0 0 0-61.1328-61.44h-28.5184a35.072 35.072 0 0 1-32.7168-22.1184l-8.8064-21.9648a26.4192 26.4192 0 0 0-24.6272-16.64H463.4112a26.368 26.368 0 0 0-24.6784 16.7424L430.08 334.6432a35.1232 35.1232 0 0 1-32.768 22.2208z" fill="#434A54" p-id="1773"></path><path d="M518.2976 524.6976m-93.5936 0a93.5936 93.5936 0 1 0 187.1872 0 93.5936 93.5936 0 1 0-187.1872 0Z" fill="#FFD16C" p-id="1774"></path><path d="M501.76 505.7536m-66.2016 0a66.2016 66.2016 0 1 0 132.4032 0 66.2016 66.2016 0 1 0-132.4032 0Z" fill="#FFE8C0" p-id="1775"></path><path d="M492.5952 491.1616m-21.9136 0a21.9136 21.9136 0 1 0 43.8272 0 21.9136 21.9136 0 1 0-43.8272 0Z" fill="#FFFAF3" p-id="1776"></path><path d="M518.2976 632.6272a107.9296 107.9296 0 1 1 107.9296-107.9296 108.0832 108.0832 0 0 1-107.9296 107.9296z m0-187.2384a79.3088 79.3088 0 1 0 79.3088 79.3088A79.4112 79.4112 0 0 0 518.2976 445.44z" fill="#434A54" p-id="1777"></path><path d="M666.0608 418.7648m-17.7152 0a17.7152 17.7152 0 1 0 35.4304 0 17.7152 17.7152 0 1 0-35.4304 0Z" fill="#434A54" p-id="1778"></path></svg>